# xmcd
#
# Track frame offsets:
#	150
#	14430
#	27817
#	39717
#	56667
#	68030
#	84530
#	96355
#	111030
#	122667
#	139630
#	155092
#	167017
#	178867
#	191580
#	205392
#	220217
#	232055
#	247980
#	258030
#	270680
#	284305
#	295542
#	306517
#
# Disc length: 4242 seconds
#
# Revision: 1
# Processed by: cddbd v1.5.2PL0 Copyright (c) Steve Scherf et al.
# Submitted via: audiograbber 1.83.01
#
DISCID=62109018
DTITLE=Various Artist - Let Your Love Flow (Disc1)
DYEAR=1999
DGENRE=Country
TTITLE0=Bellamy Brothers - If I Said You Have A Beautiful Body
TTITLE1=Dean Martin - Rio Bravo
TTITLE2=Tammy Wynette - Stand By Your Man
TTITLE3=Roy Drusky - The Last Farewell
TTITLE4=Kenny Rogers - Poem For My Little Lady
TTITLE5=Nancy Sinatra and Lee Hazlewood - Summerwine
TTITLE6=Jack Greene - There Goes My Everything
TTITLE7=Jerry Jackson - Tell Her Johnny Said Goodbye
TTITLE8=Lynn Anderson - You Don´t Have To Say You Love Me
TTITLE9=Ferlin Husky - For The Good Times
TTITLE10=Ray Stevens - Indian Love Call
TTITLE11=Jody Miller - Queen Of The House
TTITLE12=Dean Martin - Little Ole Winedrinker Me
TTITLE13=The Browns - The Three Bells
TTITLE14=Roy Drusky - Guantanamera
TTITLE15=Bellamy Brothers - Lovers Live Longer
TTITLE16=Roger Miller - Little Green Apples
TTITLE17=Billy Joe Spears - Blanket On The Ground
TTITLE18=Bob Luman - When You Say Love
TTITLE19=Nat King Cole - Ramblin´ Rose
TTITLE20=Nat Stuckey - Take Time To Love Her
TTITLE21=Don Gibson - Oh Lonesome Me
TTITLE22=Billy Walker - When A Man Loves A Woman
TTITLE23=Skeeter Davis - End Of The World
EXTD=
EXTT0=
EXTT1=
EXTT2=
EXTT3=
EXTT4=
EXTT5=
EXTT6=
EXTT7=
EXTT8=
EXTT9=
EXTT10=
EXTT11=
EXTT12=
EXTT13=
EXTT14=
EXTT15=
EXTT16=
EXTT17=
EXTT18=
EXTT19=
EXTT20=
EXTT21=
EXTT22=
EXTT23=
PLAYORDER=
